<svg width="59" height="58" viewBox="0 0 59 58" fill="none" xmlns="http://www.w3.org/2000/svg">
<path fill-rule="evenodd" clip-rule="evenodd" d="M29.6607 0.146216C33.0295 2.30546 37.2609 3.73235 41.2963 3.50264C44.3186 3.33149 47.0742 2.18836 49.5631 0.0732499C49.612 0.0318067 49.6746 0.00972029 49.7388 0.0112161C49.8031 0.0127118 49.8645 0.0376848 49.9114 0.0813573L58.9673 8.5589C58.9856 8.57648 58.997 8.5998 58.9995 8.6246C59.002 8.6494 58.9954 8.67403 58.9809 8.69402C57.6059 10.7208 56.4031 12.8792 55.3727 15.1691C54.472 17.1716 53.7564 19.52 54.1455 21.6873C54.3414 22.7773 54.5954 23.8159 54.9074 24.8032C55.6838 27.2498 56.443 29.6667 57.185 32.0539C58.014 34.7293 58.4957 37.2759 58.6299 39.6936C58.8286 43.3014 57.0109 46.6335 54.355 49.0846C52.3414 50.9403 49.8788 52.2537 46.9671 53.0248C46.2234 53.2211 45.0215 53.4004 43.3616 53.5625C40.314 53.8571 37.3724 54.5733 34.4744 55.5623C32.9615 56.0785 31.2145 56.7541 30.1533 57.8918C30.0861 57.9621 30.0045 57.9981 29.9084 57.9999H29.0675C28.9605 58.0017 28.8707 57.9639 28.7981 57.8864C27.5573 56.6001 25.4321 55.892 23.7205 55.3651C20.8397 54.4805 18.525 53.9355 16.7762 53.7301C14.8478 53.5049 13.2469 53.2509 11.9734 52.968C7.78011 52.0357 3.76372 49.1792 1.63035 45.285C0.452097 43.1338 0.152772 40.8043 0.438491 38.3397C0.966391 33.824 2.62628 29.3379 4.04399 24.887C4.42314 23.6961 4.69616 22.5422 4.86305 21.4252C5.13789 19.5956 4.61543 17.6445 3.92154 15.9419C2.9764 13.6269 1.68205 11.228 0.0384846 8.74536C-0.0213803 8.65528 -0.0114028 8.57331 0.0684171 8.49944L9.157 0.0408207C9.1827 0.0165964 9.21623 0.0022149 9.2516 0.000235454C9.28698 -0.00174399 9.32192 0.00880705 9.3502 0.030011C10.387 0.81642 11.4291 1.60553 12.5992 2.17034C18.0578 4.80251 24.3055 3.28645 29.3315 0.143513C29.3801 0.11276 29.4369 0.0966763 29.4952 0.0971551C29.5536 0.0976339 29.611 0.114656 29.6607 0.146216ZM29.6226 1.85956C31.7424 3.19186 34.1887 4.05394 36.684 4.61064C41.2119 5.62135 45.7998 4.7863 49.5441 2.00009C49.5776 1.97506 49.619 1.96268 49.6608 1.96515C49.7027 1.96763 49.7423 1.9848 49.7726 2.0136L56.9673 8.75347C56.9944 8.77953 57.0119 8.81381 57.0168 8.85066C57.0218 8.8875 57.0139 8.92471 56.9945 8.95615C55.1877 11.8775 53.5686 14.9393 52.7278 18.312C52.7187 18.3496 52.6971 18.3831 52.6665 18.4071C52.6359 18.4312 52.5981 18.4443 52.5591 18.4444H6.43315C6.33337 18.4444 6.27079 18.3958 6.24539 18.2985C5.40184 14.9447 3.80997 11.9532 1.99226 8.98318C1.93602 8.8913 1.94691 8.80842 2.02491 8.73455L9.1951 2.06224C9.30757 1.95775 9.42458 1.95144 9.54612 2.04332C15.5707 6.54558 23.062 5.46191 29.4213 1.85415C29.4902 1.81632 29.5573 1.81812 29.6226 1.85956ZM29.3587 56.3163C28.517 55.7074 27.6317 55.2173 26.7029 54.8462C24.4643 53.9508 21.7459 53.1698 18.5476 52.5032C16.6075 52.1005 14.5639 52.0492 12.6918 51.606C8.58647 50.6367 5.46352 48.4964 3.32289 45.185C2.25077 43.523 1.663 41.3421 1.88886 39.3288C1.98954 38.4262 2.02763 37.5479 2.20995 36.6507C3.03717 32.5295 4.53108 28.4704 5.76375 24.4087C6.21183 22.9259 6.44585 21.4234 6.4658 19.901C6.4658 19.8614 6.48576 19.8416 6.52567 19.8416L52.4176 19.8389C52.4774 19.8389 52.5074 19.8686 52.5074 19.928C52.511 21.3675 52.7278 22.7962 53.1577 24.2141C53.8906 26.6319 54.7097 29.2514 55.6149 32.0728C56.5129 34.8761 57.0136 37.5137 57.117 39.9855C57.2013 41.9664 56.4857 44.0662 55.272 45.7498C53.057 48.8234 50.0121 50.7998 46.1372 51.6789C45.5694 51.8087 44.6197 51.9375 43.2882 52.0654C39.4731 52.4356 35.62 53.4355 32.1642 54.857C31.239 55.2372 30.3846 55.7227 29.6009 56.3136C29.5663 56.3395 29.5243 56.3537 29.4808 56.3542C29.4372 56.3547 29.3945 56.3414 29.3587 56.3163Z" fill="white"/>
<path d="M27.7961 40.5153C27.7961 42.5276 27.0275 44.2161 25.4904 45.5807C23.9766 46.9454 22.0901 47.6277 19.831 47.6277C17.5719 47.6277 15.6738 46.9107 14.1366 45.4767C12.6228 44.0426 11.8659 42.2847 11.8659 40.2031C11.8659 36.988 12.6927 33.8655 14.3463 30.8355C15.9998 27.7824 18.1774 25.3653 20.879 23.5843L22.7655 26.6722C20.0173 28.777 18.1076 31.1593 17.0362 33.8193C17.8979 33.5648 18.8295 33.4376 19.831 33.4376C21.997 33.4376 23.8601 34.1315 25.4206 35.5193C27.0043 36.9071 27.7961 38.5724 27.7961 40.5153ZM24.093 40.4459C24.093 39.5439 23.6738 38.769 22.8354 38.1214C21.997 37.4506 20.9955 37.1152 19.831 37.1152C18.5035 37.0921 17.4787 37.3812 16.7567 37.9826C16.0348 38.584 15.6621 39.4051 15.6388 40.4459C15.6388 41.3942 16.0464 42.2038 16.8616 42.8746C17.6767 43.5453 18.6665 43.8807 19.831 43.8807C20.9722 43.8807 21.962 43.5453 22.8005 42.8746C23.6622 42.1807 24.093 41.3711 24.093 40.4459Z" fill="white"/>
<path d="M47.174 40.5153C47.174 42.5276 46.4054 44.2161 44.8683 45.5807C43.3544 46.9454 41.468 47.6277 39.2088 47.6277C36.9497 47.6277 35.0516 46.9107 33.5145 45.4767C32.0006 44.0426 31.2437 42.2847 31.2437 40.2031C31.2437 36.988 32.0705 33.8655 33.7241 30.8355C35.3777 27.7824 37.5553 25.3653 40.2569 23.5843L42.1434 26.6722C39.3952 28.777 37.4854 31.1593 36.4141 33.8193C37.2758 33.5648 38.2074 33.4376 39.2088 33.4376C41.3748 33.4376 43.238 34.1315 44.7984 35.5193C46.3821 36.9071 47.174 38.5724 47.174 40.5153ZM43.4709 40.4459C43.4709 39.5439 43.0517 38.769 42.2132 38.1214C41.3748 37.4506 40.3733 37.1152 39.2088 37.1152C37.8813 37.0921 36.8566 37.3812 36.1346 37.9826C35.4126 38.584 35.04 39.4051 35.0167 40.4459C35.0167 41.3942 35.4242 42.2038 36.2394 42.8746C37.0545 43.5453 38.0444 43.8807 39.2088 43.8807C40.35 43.8807 41.3399 43.5453 42.1783 42.8746C43.04 42.1807 43.4709 41.3711 43.4709 40.4459Z" fill="white"/>
<path fill-rule="evenodd" clip-rule="evenodd" d="M29.6607 0.146216C33.0295 2.30546 37.2609 3.73235 41.2963 3.50264C44.3186 3.33149 47.0742 2.18836 49.5631 0.0732499C49.612 0.0318067 49.6746 0.00972029 49.7388 0.0112161C49.8031 0.0127118 49.8645 0.0376848 49.9114 0.0813573L58.9673 8.5589C58.9856 8.57648 58.997 8.5998 58.9995 8.6246C59.002 8.6494 58.9954 8.67403 58.9809 8.69402C57.6059 10.7208 56.4031 12.8792 55.3727 15.1691C54.472 17.1716 53.7564 19.52 54.1455 21.6873C54.3414 22.7773 54.5954 23.8159 54.9074 24.8032C55.6838 27.2498 56.443 29.6667 57.185 32.0539C58.014 34.7293 58.4957 37.2759 58.6299 39.6936C58.8286 43.3014 57.0109 46.6335 54.355 49.0846C52.3414 50.9403 49.8788 52.2537 46.9671 53.0248C46.2234 53.2211 45.0215 53.4004 43.3616 53.5625C40.314 53.8571 37.3724 54.5733 34.4744 55.5623C32.9615 56.0785 31.2145 56.7541 30.1533 57.8918C30.0861 57.9621 30.0045 57.9981 29.9084 57.9999H29.0675C28.9605 58.0017 28.8707 57.9639 28.7981 57.8864C27.5573 56.6001 25.4321 55.892 23.7205 55.3651C20.8397 54.4805 18.525 53.9355 16.7762 53.7301C14.8478 53.5049 13.2469 53.2509 11.9734 52.968C7.78011 52.0357 3.76372 49.1792 1.63035 45.285C0.452097 43.1338 0.152772 40.8043 0.438491 38.3397C0.966391 33.824 2.62628 29.3379 4.04399 24.887C4.42314 23.6961 4.69616 22.5422 4.86305 21.4252C5.13789 19.5956 4.61543 17.6445 3.92154 15.9419C2.9764 13.6269 1.68205 11.228 0.0384846 8.74536C-0.0213803 8.65528 -0.0114028 8.57331 0.0684171 8.49944L9.157 0.0408207C9.1827 0.0165964 9.21623 0.0022149 9.2516 0.000235454C9.28698 -0.00174399 9.32192 0.00880705 9.3502 0.030011C10.387 0.81642 11.4291 1.60553 12.5992 2.17034C18.0578 4.80251 24.3055 3.28645 29.3315 0.143513C29.3801 0.11276 29.4369 0.0966763 29.4952 0.0971551C29.5536 0.0976339 29.611 0.114656 29.6607 0.146216ZM29.6226 1.85956C31.7424 3.19186 34.1887 4.05394 36.684 4.61064C41.2119 5.62135 45.7998 4.7863 49.5441 2.00009C49.5776 1.97506 49.619 1.96268 49.6608 1.96515C49.7027 1.96763 49.7423 1.9848 49.7726 2.0136L56.9673 8.75347C56.9944 8.77953 57.0119 8.81381 57.0168 8.85066C57.0218 8.8875 57.0139 8.92471 56.9945 8.95615C55.1877 11.8775 53.5686 14.9393 52.7278 18.312C52.7187 18.3496 52.6971 18.3831 52.6665 18.4071C52.6359 18.4312 52.5981 18.4443 52.5591 18.4444H6.43315C6.33337 18.4444 6.27079 18.3958 6.24539 18.2985C5.40184 14.9447 3.80997 11.9532 1.99226 8.98318C1.93602 8.8913 1.94691 8.80842 2.02491 8.73455L9.1951 2.06224C9.30757 1.95775 9.42458 1.95144 9.54612 2.04332C15.5707 6.54558 23.062 5.46191 29.4213 1.85415C29.4902 1.81632 29.5573 1.81812 29.6226 1.85956ZM29.3587 56.3163C28.517 55.7074 27.6317 55.2173 26.7029 54.8462C24.4643 53.9508 21.7459 53.1698 18.5476 52.5032C16.6075 52.1005 14.5639 52.0492 12.6918 51.606C8.58647 50.6367 5.46352 48.4964 3.32289 45.185C2.25077 43.523 1.663 41.3421 1.88886 39.3288C1.98954 38.4262 2.02763 37.5479 2.20995 36.6507C3.03717 32.5295 4.53108 28.4704 5.76375 24.4087C6.21183 22.9259 6.44585 21.4234 6.4658 19.901C6.4658 19.8614 6.48576 19.8416 6.52567 19.8416L52.4176 19.8389C52.4774 19.8389 52.5074 19.8686 52.5074 19.928C52.511 21.3675 52.7278 22.7962 53.1577 24.2141C53.8906 26.6319 54.7097 29.2514 55.6149 32.0728C56.5129 34.8761 57.0136 37.5137 57.117 39.9855C57.2013 41.9664 56.4857 44.0662 55.272 45.7498C53.057 48.8234 50.0121 50.7998 46.1372 51.6789C45.5694 51.8087 44.6197 51.9375 43.2882 52.0654C39.4731 52.4356 35.62 53.4355 32.1642 54.857C31.239 55.2372 30.3846 55.7227 29.6009 56.3136C29.5663 56.3395 29.5243 56.3537 29.4808 56.3542C29.4372 56.3547 29.3945 56.3414 29.3587 56.3163Z" fill="white"/>
<path d="M27.7961 40.5153C27.7961 42.5276 27.0275 44.2161 25.4904 45.5807C23.9766 46.9454 22.0901 47.6277 19.831 47.6277C17.5719 47.6277 15.6738 46.9107 14.1366 45.4767C12.6228 44.0426 11.8659 42.2847 11.8659 40.2031C11.8659 36.988 12.6927 33.8655 14.3463 30.8355C15.9998 27.7824 18.1774 25.3653 20.879 23.5843L22.7655 26.6722C20.0173 28.777 18.1076 31.1593 17.0362 33.8193C17.8979 33.5648 18.8295 33.4376 19.831 33.4376C21.997 33.4376 23.8601 34.1315 25.4206 35.5193C27.0043 36.9071 27.7961 38.5724 27.7961 40.5153ZM24.093 40.4459C24.093 39.5439 23.6738 38.769 22.8354 38.1214C21.997 37.4506 20.9955 37.1152 19.831 37.1152C18.5035 37.0921 17.4787 37.3812 16.7567 37.9826C16.0348 38.584 15.6621 39.4051 15.6388 40.4459C15.6388 41.3942 16.0464 42.2038 16.8616 42.8746C17.6767 43.5453 18.6665 43.8807 19.831 43.8807C20.9722 43.8807 21.962 43.5453 22.8005 42.8746C23.6622 42.1807 24.093 41.3711 24.093 40.4459Z" fill="white"/>
<path d="M47.174 40.5153C47.174 42.5276 46.4054 44.2161 44.8683 45.5807C43.3544 46.9454 41.468 47.6277 39.2088 47.6277C36.9497 47.6277 35.0516 46.9107 33.5145 45.4767C32.0006 44.0426 31.2437 42.2847 31.2437 40.2031C31.2437 36.988 32.0705 33.8655 33.7241 30.8355C35.3777 27.7824 37.5553 25.3653 40.2569 23.5843L42.1434 26.6722C39.3952 28.777 37.4854 31.1593 36.4141 33.8193C37.2758 33.5648 38.2074 33.4376 39.2088 33.4376C41.3748 33.4376 43.238 34.1315 44.7984 35.5193C46.3821 36.9071 47.174 38.5724 47.174 40.5153ZM43.4709 40.4459C43.4709 39.5439 43.0517 38.769 42.2132 38.1214C41.3748 37.4506 40.3733 37.1152 39.2088 37.1152C37.8813 37.0921 36.8566 37.3812 36.1346 37.9826C35.4126 38.584 35.04 39.4051 35.0167 40.4459C35.0167 41.3942 35.4242 42.2038 36.2394 42.8746C37.0545 43.5453 38.0444 43.8807 39.2088 43.8807C40.35 43.8807 41.3399 43.5453 42.1783 42.8746C43.04 42.1807 43.4709 41.3711 43.4709 40.4459Z" fill="white"/>
<path d="M15.5944 13.1421C15.5944 13.493 15.4977 13.8302 15.3041 14.1536C15.1174 14.4702 14.8651 14.7145 14.5471 14.8865C14.1945 15.0792 13.8384 15.1755 13.4789 15.1755H9.99456V8.25988H13.2301C13.7416 8.25988 14.1426 8.34245 14.433 8.5076C15.0621 8.85854 15.3767 9.38496 15.3767 10.0868C15.3767 10.775 15.1382 11.2566 14.6611 11.5319C15.2764 11.8278 15.5875 12.3645 15.5944 13.1421ZM14.1323 10.1797C14.1323 9.9733 14.0735 9.81159 13.956 9.69461C13.8453 9.57763 13.6898 9.51226 13.4893 9.4985H11.2597V10.8816H13.4893C13.7036 10.8679 13.8626 10.799 13.9663 10.6752C14.0769 10.5513 14.1323 10.3862 14.1323 10.1797ZM14.3604 13.0698C14.3604 12.8015 14.2809 12.5778 14.1219 12.3989C13.9698 12.22 13.7589 12.1271 13.4893 12.1202H11.2597V13.9369H13.4893C13.7589 13.9438 13.9698 13.8646 14.1219 13.6995C14.2809 13.5343 14.3604 13.3244 14.3604 13.0698Z" fill="white"/>
<path d="M22.5923 12.3886C22.5923 13.235 22.3296 13.9334 21.8041 14.4839C21.2787 15.0275 20.6081 15.2994 19.7923 15.2994C18.9765 15.2994 18.3059 15.0275 17.7805 14.4839C17.2551 13.9334 16.9924 13.235 16.9924 12.3886V8.25988H18.2368V12.3886C18.2368 12.7395 18.3094 13.0389 18.4546 13.2866C18.7588 13.7889 19.2047 14.0401 19.7923 14.0401C20.3869 14.0401 20.8328 13.7889 21.1301 13.2866C21.2822 13.0389 21.3582 12.7395 21.3582 12.3886V8.25988H22.5923V12.3886Z" fill="white"/>
<path d="M29.5797 15.1755H28.1901L27.0701 12.4609H25.2243V15.1755H23.9798V8.25988H27.1738C27.6301 8.25988 28.0277 8.35622 28.3664 8.54889C29.0785 8.96176 29.4345 9.57075 29.4345 10.3758C29.4345 11.1947 29.0612 11.8071 28.3146 12.2131L29.5797 15.1755ZM28.1901 10.3758C28.1901 10.1075 28.1003 9.89417 27.9205 9.7359C27.7408 9.57763 27.4988 9.4985 27.1946 9.4985H25.2243V11.2222H27.1946C27.4988 11.2222 27.7408 11.1465 27.9205 10.9952C28.1003 10.8369 28.1901 10.6305 28.1901 10.3758Z" fill="white"/>
<path d="M33.9643 11.728H36.5983V12.626C36.5983 13.3761 36.3287 14.0091 35.7894 14.5252C35.2571 15.0413 34.6072 15.2994 33.8398 15.2994C32.8858 15.2994 32.1495 14.9243 31.631 14.1743C31.1885 13.5274 30.9673 12.7051 30.9673 11.7074C30.9673 10.6477 31.23 9.79095 31.7554 9.13723C32.2809 8.47664 32.9757 8.14634 33.8398 8.14634C35.0359 8.14634 35.9035 8.62458 36.4427 9.58107L35.2813 10.1591C34.9149 9.63612 34.4344 9.37463 33.8398 9.37463C33.3559 9.37463 32.9618 9.59483 32.6576 10.0352C32.3604 10.4687 32.2117 11.0261 32.2117 11.7074C32.2117 12.368 32.3223 12.8978 32.5436 13.2969C32.8201 13.8061 33.2522 14.0607 33.8398 14.0607C34.1786 14.0607 34.4862 13.9575 34.7628 13.7511C35.0393 13.5446 35.2191 13.2832 35.302 12.9666H33.9643V11.728Z" fill="white"/>
<path d="M43.2228 15.1755H38.0377V8.25988H43.1087V9.4985H39.3029V10.7887H41.3769V12.048H39.3029V13.9369H43.2228V15.1755Z" fill="white"/>
<path d="M50.2593 15.1755H48.8697L47.7497 12.4609H45.9038V15.1755H44.6594V8.25988H47.8534C48.3097 8.25988 48.7072 8.35622 49.046 8.54889C49.758 8.96176 50.1141 9.57075 50.1141 10.3758C50.1141 11.1947 49.7407 11.8071 48.9941 12.2131L50.2593 15.1755ZM48.8697 10.3758C48.8697 10.1075 48.7798 9.89417 48.6 9.7359C48.4203 9.57763 48.1783 9.4985 47.8741 9.4985H45.9038V11.2222H47.8741C48.1783 11.2222 48.4203 11.1465 48.6 10.9952C48.7798 10.8369 48.8697 10.6305 48.8697 10.3758Z" fill="white"/>
</svg>
