<svg width="762" height="1004" viewBox="0 0 762 1004" fill="none" xmlns="http://www.w3.org/2000/svg">
    <path
        d="M185 1C185 1 199.306 34.4199 213.5 52.5C243.779 91.0674 273.649 103.005 320 119C425.959 155.564 488.91 60.5 601 60.5C662 60.5 706.493 85.2197 738 138C784.592 216.05 755.297 322.901 673 361.5C619.659 386.518 562.646 307.509 516 343.5C504.405 352.447 496.58 363.86 497 378.5C497.6 399.384 532.116 402.684 544 385.5C552.219 373.616 553.349 355.666 550.5 341.5C536.334 271.054 437.335 271.357 366 280C260.723 292.756 176.5 348.5 107 421.5C78.7179 451.207 41.402 488.095 27.0001 526.5C6.00005 582.5 -20.2962 646.858 34.0001 702C59.7401 728.141 82.6663 736.926 119 742C193.383 752.388 211.447 650.297 286.5 647.5C337.452 645.601 376.175 648.702 421 673C474.5 702 500.499 737.697 550.5 781C598.212 822.32 621.994 849.182 662 898C694.085 937.152 738 1003 738 1003"
        stroke="black" stroke-width="2" />
</svg>